<svg width="16" height="26" viewBox="0 0 16 26" fill="none" xmlns="http://www.w3.org/2000/svg">
<path d="M4.1185 20.8663C3.8841 21.1007 3.75241 21.4186 3.75241 21.7501C3.75241 22.0816 3.8841 22.3995 4.1185 22.6339C4.3529 22.8683 4.67082 23 5.00231 23C5.33381 23 5.65172 22.8683 5.88613 22.6339L14.6337 13.883C14.7498 13.7669 14.842 13.6292 14.9048 13.4775C14.9677 13.3259 15 13.1633 15 12.9992C15 12.835 14.9677 12.6725 14.9048 12.5208C14.842 12.3692 14.7498 12.2314 14.6337 12.1153L5.88445 3.36609C5.65005 3.13169 5.33213 3 5.00064 3C4.66914 3 4.35122 3.13169 4.11682 3.36609C3.88242 3.60049 3.75073 3.91841 3.75073 4.2499C3.75073 4.5814 3.88242 4.89931 4.11682 5.13372L11.9823 12.9992L4.1185 20.8663Z" fill="white"/>
</svg>
