<svg width="20" height="20" viewBox="0 0 20 20" fill="none" xmlns="http://www.w3.org/2000/svg">
<path fill-rule="evenodd" clip-rule="evenodd" d="M6.24984 0.833008C6.71007 0.833008 7.08317 1.2061 7.08317 1.66634V2.49967H12.9165V1.66634C12.9165 1.2061 13.2896 0.833008 13.7498 0.833008C14.2101 0.833008 14.5832 1.2061 14.5832 1.66634V2.49967H14.9998C16.8408 2.49967 18.3332 3.99206 18.3332 5.83301V14.9997C18.3332 16.8406 16.8408 18.333 14.9998 18.333H4.99984C3.15889 18.333 1.6665 16.8406 1.6665 14.9997V5.83301C1.6665 3.99206 3.15889 2.49967 4.99984 2.49967H5.4165V1.66634C5.4165 1.2061 5.7896 0.833008 6.24984 0.833008ZM5.4165 4.16634H4.99984C4.07936 4.16634 3.33317 4.91253 3.33317 5.83301V7.49967H16.6665V5.83301C16.6665 4.91253 15.9203 4.16634 14.9998 4.16634H14.5832V5.37004C14.5832 5.83028 14.2101 6.20338 13.7498 6.20338C13.2896 6.20338 12.9165 5.83028 12.9165 5.37004V4.16634H7.08317V5.37004C7.08317 5.83028 6.71007 6.20338 6.24984 6.20338C5.7896 6.20338 5.4165 5.83028 5.4165 5.37004V4.16634ZM16.6665 9.16634H3.33317V14.9997C3.33317 15.9201 4.07936 16.6663 4.99984 16.6663H14.9998C15.9203 16.6663 16.6665 15.9201 16.6665 14.9997V9.16634Z" fill="#2B2926"/>
<path d="M5.4165 10.833H7.08317V12.4997H5.4165V10.833Z" fill="#2B2926"/>
<path d="M9.1665 10.833H10.8332V12.4997H9.1665V10.833Z" fill="#2B2926"/>
<path d="M12.9165 10.833H14.5832V12.4997H12.9165V10.833Z" fill="#2B2926"/>
</svg>
