<svg width="16" height="16" viewBox="0 0 16 16" fill="none" xmlns="http://www.w3.org/2000/svg">
<path fill-rule="evenodd" clip-rule="evenodd" d="M3.3335 3.33301C3.3335 2.22844 4.22893 1.33301 5.3335 1.33301C6.43807 1.33301 7.3335 2.22844 7.3335 3.33301C7.3335 4.43758 6.43807 5.33301 5.3335 5.33301C4.22893 5.33301 3.3335 4.43758 3.3335 3.33301ZM5.3335 2.66634C4.96531 2.66634 4.66683 2.96482 4.66683 3.33301C4.66683 3.7012 4.96531 3.99967 5.3335 3.99967C5.70169 3.99967 6.00016 3.7012 6.00016 3.33301C6.00016 2.96482 5.70169 2.66634 5.3335 2.66634Z" fill="#2B2926"/>
<path d="M1.3335 9.33301C1.3335 7.86025 2.5274 6.66634 4.00016 6.66634H12.0002C13.4729 6.66634 14.6668 7.86025 14.6668 9.33301V12.6663C14.6668 13.4027 14.0699 13.9997 13.3335 13.9997H11.6668C11.2986 13.9997 11.0002 13.7012 11.0002 13.333C11.0002 12.9648 11.2986 12.6663 11.6668 12.6663H13.3335V9.33301C13.3335 8.59663 12.7365 7.99967 12.0002 7.99967H4.00016C3.26378 7.99967 2.66683 8.59663 2.66683 9.33301V12.6663H4.3335C4.70169 12.6663 5.00016 12.9648 5.00016 13.333C5.00016 13.7012 4.70169 13.9997 4.3335 13.9997H2.66683C1.93045 13.9997 1.3335 13.4027 1.3335 12.6663V9.33301Z" fill="#2B2926"/>
<path fill-rule="evenodd" clip-rule="evenodd" d="M10.6668 1.99967C9.56226 1.99967 8.66683 2.89511 8.66683 3.99967C8.66683 5.10424 9.56226 5.99967 10.6668 5.99967C11.7714 5.99967 12.6668 5.10424 12.6668 3.99967C12.6668 2.89511 11.7714 1.99967 10.6668 1.99967ZM10.0002 3.99967C10.0002 3.63148 10.2986 3.33301 10.6668 3.33301C11.035 3.33301 11.3335 3.63148 11.3335 3.99967C11.3335 4.36786 11.035 4.66634 10.6668 4.66634C10.2986 4.66634 10.0002 4.36786 10.0002 3.99967Z" fill="#2B2926"/>
<path d="M6.66683 10.6663C6.66683 9.92996 7.26378 9.33301 8.00016 9.33301C8.73654 9.33301 9.3335 9.92996 9.3335 10.6663C9.3335 11.4027 8.73654 11.9997 8.00016 11.9997C7.26378 11.9997 6.66683 11.4027 6.66683 10.6663Z" fill="#2B2926"/>
<path d="M6.66683 12.6663C6.29864 12.6663 6.00016 12.9648 6.00016 13.333C6.00016 13.7012 6.29864 13.9997 6.66683 13.9997H9.3335C9.70169 13.9997 10.0002 13.7012 10.0002 13.333C10.0002 12.9648 9.70169 12.6663 9.3335 12.6663H6.66683Z" fill="#2B2926"/>
</svg>
