<svg width="20" height="20" viewBox="0 0 20 20" fill="none" xmlns="http://www.w3.org/2000/svg">
<path fill-rule="evenodd" clip-rule="evenodd" d="M15.7126 5.83333H16.6667C17.125 5.83333 17.5 6.20833 17.5 6.66667C17.5 7.12501 17.125 7.5 16.6667 7.5L15.7124 7.50045C15.3537 8.70501 14.2378 9.58333 12.9167 9.58333C11.5957 9.58333 10.4798 8.70513 10.121 7.50071L3.33333 7.5C2.875 7.5 2.5 7.12501 2.5 6.66667C2.5 6.20833 2.875 5.83333 3.33333 5.83333H10.1208C10.4793 4.62855 11.5954 3.75 12.9167 3.75C14.2379 3.75 15.354 4.62855 15.7126 5.83333ZM11.9521 7.46178C11.7738 7.24571 11.6667 6.9687 11.6667 6.66667C11.6667 6.34652 11.787 6.05448 11.985 5.83333C12.2138 5.5776 12.5465 5.41667 12.9167 5.41667C13.2869 5.41667 13.6195 5.5776 13.8484 5.83333C13.8596 5.84585 13.8705 5.85859 13.8812 5.87155C14.0595 6.08762 14.1667 6.36464 14.1667 6.66667C14.1667 6.98725 14.046 7.27964 13.8476 7.5009C13.6187 7.75611 13.2864 7.91667 12.9167 7.91667C12.5283 7.91667 12.1814 7.73959 11.9521 7.46178Z" fill="#2B2926"/>
<path fill-rule="evenodd" clip-rule="evenodd" d="M7.08333 16.25C8.40433 16.25 9.52022 15.3718 9.879 14.1674L16.6667 14.1667C17.125 14.1667 17.5 13.7917 17.5 13.3333C17.5 12.875 17.125 12.5 16.6667 12.5L9.8792 12.5C9.52063 11.2952 8.40457 10.4167 7.08333 10.4167C5.76209 10.4167 4.64603 11.2952 4.28746 12.5L3.33333 12.5C2.875 12.5 2.5 12.875 2.5 13.3333C2.5 13.7917 2.875 14.1667 3.33333 14.1667L4.28758 14.1671C4.64629 15.3717 5.76224 16.25 7.08333 16.25ZM7.08333 12.0833C7.45351 12.0833 7.78611 12.2442 8.01499 12.4999C8.21296 12.7211 8.33333 13.0132 8.33333 13.3333C8.33333 13.6539 8.21265 13.9463 8.01424 14.1676C7.78538 14.4228 7.45311 14.5833 7.08333 14.5833C6.71356 14.5833 6.38128 14.4228 6.15243 14.1676C5.95402 13.9463 5.83333 13.6539 5.83333 13.3333C5.83333 13.0132 5.95371 12.7211 6.15168 12.4999C6.38056 12.2442 6.71315 12.0833 7.08333 12.0833Z" fill="#2B2926"/>
</svg>
