<svg width="16" height="17" viewBox="0 0 16 17" fill="none" xmlns="http://www.w3.org/2000/svg">
<path d="M9.83496 4.37207L10.0088 4.43262L10.1807 4.36621L13.5 3.0791V12.793L10.0029 13.9707L6.16504 12.6279L5.99121 12.5674L5.81934 12.6338L2.5 13.9199V4.20605L5.99609 3.02832L9.83496 4.37207ZM12.4863 3.83398L10.4863 4.60742L10.167 4.73047V13.5625L10.8262 13.3408L12.8262 12.667L13.167 12.5527V3.57031L12.4863 3.83398ZM5.17383 3.65918L3.17383 4.33301L2.83301 4.44727V13.4365L3.51367 13.1729L5.51367 12.3994L5.83301 12.2764V3.4375L5.17383 3.65918ZM9.83301 4.72559L9.49805 4.6084L6.83203 3.6748L6.16699 3.44238V12.2744L6.50195 12.3916L9.16797 13.3252L9.83301 13.5576V4.72559Z" fill="#2B2926" stroke="#2B2926"/>
</svg>
