<svg width="20" height="20" viewBox="0 0 20 20" fill="none" xmlns="http://www.w3.org/2000/svg">
<path fill-rule="evenodd" clip-rule="evenodd" d="M6.6665 3.33301C5.28579 3.33301 4.1665 4.4523 4.1665 5.83301C4.1665 7.21372 5.28579 8.33301 6.6665 8.33301C8.04722 8.33301 9.1665 7.21372 9.1665 5.83301C9.1665 4.4523 8.04722 3.33301 6.6665 3.33301ZM5.83317 5.83301C5.83317 5.37277 6.20627 4.99967 6.6665 4.99967C7.12674 4.99967 7.49984 5.37277 7.49984 5.83301C7.49984 6.29325 7.12674 6.66634 6.6665 6.66634C6.20627 6.66634 5.83317 6.29325 5.83317 5.83301Z" fill="#2B2926"/>
<path fill-rule="evenodd" clip-rule="evenodd" d="M1.6665 14.1663C1.6665 11.4049 3.90508 9.16634 6.6665 9.16634C9.42793 9.16634 11.6665 11.4049 11.6665 14.1663V14.4441C11.6665 15.2112 11.0447 15.833 10.2776 15.833H3.05539C2.28833 15.833 1.6665 15.2112 1.6665 14.4441V14.1663ZM6.6665 10.833C4.82556 10.833 3.33317 12.3254 3.33317 14.1663H9.99984C9.99984 12.3254 8.50745 10.833 6.6665 10.833Z" fill="#2B2926"/>
<path fill-rule="evenodd" clip-rule="evenodd" d="M10.8332 5.83301C10.8332 4.4523 11.9525 3.33301 13.3332 3.33301C14.7139 3.33301 15.8332 4.4523 15.8332 5.83301C15.8332 7.21372 14.7139 8.33301 13.3332 8.33301C11.9525 8.33301 10.8332 7.21372 10.8332 5.83301ZM13.3332 4.99967C12.8729 4.99967 12.4998 5.37277 12.4998 5.83301C12.4998 6.29325 12.8729 6.66634 13.3332 6.66634C13.7934 6.66634 14.1665 6.29325 14.1665 5.83301C14.1665 5.37277 13.7934 4.99967 13.3332 4.99967Z" fill="#2B2926"/>
<path d="M16.9443 15.833H13C13.213 15.4163 13.3332 14.9442 13.3332 14.4441V14.1663H16.6665C16.6665 12.3254 15.1741 10.833 13.3332 10.833C13.0457 10.833 12.7668 10.8694 12.5007 10.9378C12.2152 10.423 11.8635 9.94998 11.4572 9.53019C12.0365 9.29555 12.6697 9.16634 13.3332 9.16634C16.0946 9.16634 18.3332 11.4049 18.3332 14.1663V14.4441C18.3332 15.2112 17.7113 15.833 16.9443 15.833Z" fill="#2B2926"/>
</svg>
